<svg width="100" height="100" viewBox="0 0 100 100" fill="none" xmlns="http://www.w3.org/2000/svg"><path d="M49.3602 88.8908V49.5185H27.6528V53.4772L35.7721 56.5034V86.2007C33.6852 86.6593 32.1771 86.7815 31.126 86.7815C20.9045 86.7815 18.4672 75.2572 18.4672 51.3832C18.4672 23.7799 22.1841 13.1879 31.126 13.1879C35.7721 13.1879 38.7883 15.9849 41.9264 28.6861L43.5563 35.2125H48.5528V10.7577C41.9416 9.24455 36.2444 9.01528 33.4567 9.01528C12.5567 9.01528 2 22.9851 2 51.5208C2 79.4757 10.1193 91 29.5113 91C34.3859 90.9847 42.3986 90.2969 49.3602 88.8908ZM98 70.7178C98 59.652 94.1612 53.4772 86.7426 46.7215L76.5363 37.3981C71.0828 32.5072 69.5747 28.5486 69.5747 23.6576C69.5747 17.605 71.7836 13.1726 77.1152 13.1726C82.2183 13.1726 84.8994 17.605 87.7937 26.8062L90.4595 35.1972H95.2123V10.7424C88.7077 9.5808 83.8331 9 79.1869 9C64.563 9 57.1292 15.2818 57.1292 29.2669C57.1292 38.468 60.3739 44.4136 68.3865 51.857L77.9073 60.5843C83.7112 65.9491 85.4478 69.3269 85.4478 75.6088C85.4478 82.8382 82.8886 86.7968 77.0847 86.7968C70.702 86.7968 67.564 81.9059 63.847 68.5169L61.7601 61.0582H56.7636V88.8908C62.7959 90.2816 70.2298 90.9847 75.5614 90.9847C91.602 90.9847 98 84.5806 98 70.7178Z" fill="#7399C6"/></svg>
